:SAMPLES-PER-SECOND 24
:FULLY-SPECIFIED
:DEGREES
93
root  -0.101718 38.6735 25.0849 170.329 70.3005 174.116
RightUpLeg  3.82452 -16.709 -20.0628
RightLeg  28.6838 6.62297 3.7015
RightFoot  -10.9658 -0.136782 17.9653
RightToes  -1.74623e-010 0 -2.59999e-017
Spine  1.83618 3.26399 4.08403
Spine1  15.9885 4.54813 -4.50199
HEad  -27.7985 52.8769 -33.1639
LeftShoulder1  2.05374 -3.31939 -23.8667
LeftArm  21.1099 6.48564 -44.9588
LeftForeArm  -5.59686 -22.0015 -5.54405
LeftHand  0.406848 7.29798 24.7205
RightShoulder  3.15499 5.47576 29.2131
RightArm  -1.03823 1.24059 45.8754
RightForeArm  133.257 70.8114 146.994
RightHand  1.46002 -11.8863 -25.788
LeftUpLeg  -7.92738 14.2805 12.0213
LeftLeg  30.0543 -1.56705 -0.642559
LeftFoot  -3.69821 0.807565 -11.7313
LeftToes  -6.27559e-011 -2.10356e-011 8.24929e-012
94
root  0.165138 40.3869 24.8301 170.388 71.2639 173.841
RightUpLeg  6.187 -16.1464 -19.3805
RightLeg  20.0924 5.47107 2.01068
RightFoot  2.76046 -2.22553 18.0785
RightToes  -1.74623e-010 0 -2.59999e-017
Spine  1.43337 3.46748 4.98439
Spine1  13.9895 4.95219 -4.68782
HEad  -23.3001 54.8392 -30.2405
LeftShoulder1  2.08733 -3.22791 -24.8223
LeftArm  22.1064 11.5542 -44.2536
LeftForeArm  -5.73117 -21.8594 -5.6826
LeftHand  -0.131734 4.38362 16.3105
RightShoulder  3.20607 5.5216 29.6089
RightArm  3.36154 -8.81504 46.4402
RightForeArm  134.538 69.1555 149.879
RightHand  0.905485 -10.3716 -21.3592
LeftUpLeg  -4.86264 13.2474 11.2563
LeftLeg  22.1299 0.665371 0.636021
LeftFoot  10.2808 1.96448 -10.684
LeftToes  -6.27559e-011 -2.10356e-011 8.24929e-012
95
root  0.302186 41.4668 24.6507 171.626 72.361 174.474
RightUpLeg  5.95332 -15.9102 -18.3723
RightLeg  16.3574 2.76198 1.00434
RightFoot  11.3004 -3.25989 16.5959
RightToes  -1.74623e-010 0 -2.59999e-017
Spine  0.649131 3.57228 6.14203
Spine1  12.9777 5.29899 -5.38169
HEad  -21.5009 55.7512 -28.2223
LeftShoulder1  2.02689 -3.03729 -24.7954
LeftArm  18.8967 16.5546 -43.4607
LeftForeArm  -1.51653 -24.0336 -5.26556
LeftHand  -0.346168 1.37113 9.91779
RightShoulder  3.18051 5.53965 29.248
RightArm  6.45785 -15.4495 45.2425
RightForeArm  141.573 66.9041 153.769
RightHand  0.106404 -6.8094 -9.9834
LeftUpLeg  -3.89507 11.8862 11.0088
LeftLeg  17.8737 0.95881 0.640592
LeftFoot  17.1196 2.02121 -8.38312
LeftToes  -6.27559e-011 -2.10356e-011 8.24929e-012
96
root  0.337934 41.8866 24.5838 172.048 73.3148 174.458
RightUpLeg  4.86359 -16.1592 -17.7571
RightLeg  16.9583 1.89951 0.622686
RightFoot  11.3727 -2.95119 15.0105
RightToes  -1.74623e-010 0 -2.59999e-017
Spine  -0.296394 3.90802 6.62513
Spine1  13.4293 5.83037 -6.08323
HEad  -21.9828 55.2576 -27.5181
LeftShoulder1  1.87223 -2.95386 -22.6968
LeftArm  18.0085 18.9323 -44.3931
LeftForeArm  -0.985284 -26.8276 -5.82176
LeftHand  -0.316508 1.91196 10.4102
RightShoulder  3.02213 5.42397 27.8913
RightArm  7.46547 -18.8766 44.3837
RightForeArm  148.573 64.0906 157.513
RightHand  -0.0678816 -3.32139 -2.90038
LeftUpLeg  -3.47111 11.2357 10.9785
LeftLeg  15.8351 -0.623337 -0.18184
LeftFoot  14.5859 1.57463 -7.22456
LeftToes  -6.27559e-011 -2.10356e-011 8.24929e-012
97
root  0.247591 41.7438 24.6067 171.048 73.5755 173.766
RightUpLeg  4.67891 -15.5808 -17.6792
RightLeg  18.8092 3.57479 1.13729
RightFoot  10.1449 -2.75348 14.809
RightToes  -1.74623e-010 0 -2.59999e-017
Spine  0.229408 3.8581 6.01097
Spine1  13.9027 5.75144 -6.08401
HEad  -23.6551 54.534 -28.5753
LeftShoulder1  1.77322 -2.95368 -21.0691
LeftArm  19.812 18.6148 -44.1509
LeftForeArm  0.341331 -29.9996 -6.51744
LeftHand  -0.211533 3.48937 12.2735
RightShoulder  2.86809 5.24397 26.7904
RightArm  6.97121 -18.534 42.7922
RightForeArm  147.984 62.0632 159.241
RightHand  -0.0642886 -3.24229 -2.66502
LeftUpLeg  -3.46405 10.8189 11.1715
LeftLeg  14.8769 -2.06034 -0.903056
LeftFoot  14.6227 2.09152 -9.41958
LeftToes  -6.27559e-011 -2.10356e-011 8.24929e-012
